PathFileType	4	(X/Y/Z)	./resultDataOpenSim/trcMotMarkerGrf/sub10/qtm-05-06.trc
DataRate	CameraRate	NumFrames	NumMarkers	Units	OrigDataRate	OrigDataStartFrame	OrigNumFrames
250.000000	250.000000	8	24	m	250.000000	440	502
Frame#	Time	L.Toe.Tip			R.Toe.Tip			L.Ankle.Lat			R.Ankle.Lat			L.Ankle.Med			R.Ankle.Med			L.Heel			R.Heel			L.Knee.Lat			R.Knee.Lat			L.Knee.Med			R.Knee.Med			L.Thigh.Upper			R.Thigh.Upper			L.ASIS			R.ASIS			V.Sacral			L.Acromium			R.Acromium			C7			L.Elbow			R.Elbow			L.Wrist.Lat			R.Wrist.Lat
		X1	Y1	Z1	X2	Y2	Z2	X3	Y3	Z3	X4	Y4	Z4	X5	Y5	Z5	X6	Y6	Z6	X7	Y7	Z7	X8	Y8	Z8	X9	Y9	Z9	X10	Y10	Z10	X11	Y11	Z11	X12	Y12	Z12	X13	Y13	Z13	X14	Y14	Z14	X15	Y15	Z15	X16	Y16	Z16	X17	Y17	Z17	X18	Y18	Z18	X19	Y19	Z19	X20	Y20	Z20	X21	Y21	Z21	X22	Y22	Z22	X23	Y23	Z23	X24	Y24	Z24

440	1.756	1.5378334	0.114737	-0.083217848	0.89526575	0.038331679	0.049688668	1.4056811	0.087645883	-0.1157346	0.75502622	0.058186241	0.087457096	1.4048515	0.11175733	-0.035727236	0.7793967	0.086390224	0.0047830643	1.3586801	0.035300234	-0.070744006	0.70171841	0.040814196	0.040084357	1.2529663	0.44807382	-0.13813585	0.91492956	0.43261823	0.13433659	1.2697957	0.42336523	-0.018732676	0.93647133	0.43450964	0.0064471917	1.1130253	0.80521477	-0.18523589	0.99710757	0.83941138	0.1856296	1.1482048	0.91859331	-0.10844514	1.0910672	0.92600277	0.13404843	0.92667858	0.92197955	-0.036966113	1.0407562	1.3942192	-0.15420681	1.0510743	1.3810559	0.16933688	0.95925529	1.4132927	0.0065372423	0.8734117	1.1039719	-0.23625298	1.1566382	1.0402167	0.22646827	0.91449095	0.87236864	-0.28904503	1.4009264	1.0259408	0.16497249
441	1.76	1.5456571	0.11515456	-0.082965529	0.89536529	0.038247157	0.049755381	1.4133251	0.087364937	-0.11543336	0.75530531	0.058934933	0.087344472	1.4124957	0.11160452	-0.035565702	0.7799918	0.086949999	0.0046202708	1.366674	0.034817146	-0.070527782	0.70189549	0.042006456	0.039864555	1.2590975	0.4475918	-0.1381297	0.91867697	0.43190819	0.13386667	1.2754997	0.42273164	-0.018646104	0.94086359	0.43343613	0.0060900779	1.1197316	0.80408822	-0.18533556	1.0019588	0.83816191	0.18496658	1.1542025	0.91770823	-0.10820699	1.0963352	0.92484071	0.1341214	0.93252044	0.92097521	-0.037571133	1.0455985	1.3931778	-0.15450495	1.056295	1.3797817	0.16889978	0.9642189	1.4119996	0.006286224	0.87806087	1.1031759	-0.23645145	1.1627537	1.0392601	0.22503925	0.91818312	0.87145959	-0.28943662	1.4069571	1.0265457	0.16300178
442	1.764	1.5527116	0.11509982	-0.082820319	0.89545102	0.038197824	0.049795675	1.4202862	0.086778071	-0.11508894	0.75560197	0.059790639	0.087185645	1.4195373	0.11122157	-0.035348129	0.7806167	0.087566229	0.0044321626	1.3739503	0.034186483	-0.070238881	0.70211182	0.043305402	0.039587329	1.2652755	0.44707302	-0.1381268	0.92247397	0.43120819	0.13340024	1.2813196	0.42216852	-0.018558611	0.94532888	0.43233191	0.0057497789	1.1264862	0.80297336	-0.18545427	1.0069045	0.83693152	0.18437334	1.1601954	0.91680742	-0.10800746	1.1016324	0.92366336	0.13418205	0.93840705	0.92003636	-0.038167633	1.0504683	1.3921653	-0.15481848	1.0613279	1.3786164	0.16852789	0.969219	1.4107277	0.0060279237	0.88280398	1.1024015	-0.23674088	1.1687895	1.0382899	0.22365794	0.92198348	0.87054717	-0.28979841	1.4129077	1.0270543	0.16106503
443	1.768	1.5589731	0.11458521	-0.08276715	0.89553001	0.038167483	0.049804272	1.4265583	0.085902173	-0.11470729	0.75592889	0.060747729	0.086995793	1.4259617	0.11058061	-0.035075006	0.78127207	0.088235087	0.0042302155	1.3804799	0.033359527	-0.069795364	0.70235571	0.04470564	0.039294898	1.2715118	0.44653767	-0.1381097	0.92631612	0.43052396	0.13293612	1.2872594	0.4216715	-0.018484454	0.94986298	0.43121259	0.0054238477	1.1332748	0.80188847	-0.18560289	1.0119492	0.83572725	0.18386078	1.1661991	0.91588493	-0.10783578	1.1069634	0.92246158	0.13423716	0.9443448	0.91911852	-0.038820957	1.0553684	1.3911844	-0.15514073	1.0662616	1.3775264	0.16818439	0.97424689	1.4094726	0.0057656352	0.88763118	1.1016476	-0.23710151	1.1747803	1.0373528	0.22225505	0.92589568	0.86963016	-0.29013204	1.418775	1.0274777	0.15916505
444	1.772	1.5644974	0.11362067	-0.082767627	0.89561362	0.03813673	0.049787588	1.4321578	0.08475984	-0.11430616	0.7562936	0.061784457	0.086805622	1.4317825	0.10965914	-0.034749075	0.78196155	0.08895679	0.0040298333	1.3862397	0.03231967	-0.069225069	0.70261772	0.046200484	0.039029895	1.2778134	0.44601011	-0.13807402	0.93019488	0.42984963	0.13246179	1.2933398	0.4212438	-0.01845158	0.95446782	0.43009329	0.0051048816	1.1400763	0.80086079	-0.1857979	1.0170582	0.83454297	0.18338473	1.1722234	0.91493496	-0.10767434	1.1123412	0.92122179	0.13430184	0.95031063	0.91817176	-0.039562113	1.0603083	1.39023	-0.15547038	1.0711733	1.3764789	0.16784341	0.97928826	1.4082328	0.005486003	0.8925375	1.100898	-0.23751402	1.1807327	1.0364724	0.22074402	0.92992717	0.86870877	-0.29044754	1.4245573	1.0278204	0.15729912
445	1.776	1.5693653	0.11219783	-0.082791556	0.89570807	0.03809704	0.049758956	1.4371321	0.083374643	-0.11391319	0.75668916	0.062888608	0.086646503	1.4370187	0.10845307	-0.034375686	0.78268903	0.089734277	0.0038461374	1.3912334	0.031068977	-0.068601321	0.70289415	0.047790798	0.0388231	1.2841822	0.44550673	-0.13802518	0.93410323	0.42918769	0.1319652	1.2995809	0.42089152	-0.018475706	0.95914194	0.4289827	0.004784975	1.146862	0.79992377	-0.18605176	1.0222004	0.83337057	0.18290018	1.1782798	0.91395748	-0.10752313	1.1177823	0.91994324	0.13438008	0.95628317	0.91718441	-0.040363775	1.0652984	1.3892948	-0.15581202	1.076095	1.3754657	0.16749819	0.98433207	1.4070133	0.0051670875	0.8975247	1.1001369	-0.23796742	1.1866136	1.0356254	0.21910242	0.934086	0.86778868	-0.29075273	1.4302611	1.0280793	0.15546112
446	1.78	1.5736653	0.1103022	-0.082838132	0.8958157	0.038049621	0.049729381	1.4415366	0.081759282	-0.11355344	0.75710652	0.064070273	0.0865354	1.4416834	0.10697954	-0.03396056	0.78345344	0.090572091	0.0036914383	1.3954944	0.029617089	-0.067973209	0.70318895	0.04948113	0.038687855	1.2906125	0.44502555	-0.13797081	0.93803994	0.42855376	0.13144265	1.3059926	0.42061592	-0.018550412	0.96387124	0.42788324	0.0044556969	1.1535987	0.79911397	-0.18636646	1.0273739	0.83221155	0.18239544	1.1843834	0.9129582	-0.10739386	1.1232956	0.91865096	0.13444847	0.96226654	0.91618052	-0.041176781	1.0703441	1.3883732	-0.15616782	1.0810292	1.3744951	0.16714716	0.98937952	1.4058234	0.0047992014	0.902599	1.0993626	-0.23845837	1.1923963	1.0347809	0.21736379	0.93837889	0.86687836	-0.29104331	1.4358951	1.0282503	0.15365146
447	1.784	1.5774911	0.10794158	-0.082923374	0.89594027	0.037997708	0.049701825	1.4454036	0.079913501	-0.11322684	0.75755444	0.065345635	0.086470625	1.4457894	0.10526551	-0.033511059	0.7842501	0.091474986	0.0035741032	1.3990573	0.028002138	-0.067363282	0.70351598	0.051276959	0.038619872	1.2970891	0.44455114	-0.13792068	0.94201207	0.4279522	0.13089743	1.312579	0.42041356	-0.018657621	0.9686406	0.42679768	0.0041080991	1.160256	0.79846376	-0.18673373	1.0325975	0.83107891	0.18187944	1.1905482	0.91194756	-0.10729706	1.1288815	0.91737521	0.1344723	0.96828231	0.91518626	-0.041971444	1.075444	1.3874656	-0.15653503	1.0859696	1.3735749	0.16678963	0.99444093	1.40467	0.0043904764	0.90776564	1.0985825	-0.23898862	1.1980873	1.033928	0.21556804	0.94280896	0.86598062	-0.29130838	1.4414624	1.0283309	0.15187826
